<?xml version="1.0" standalone="no"?>
<!DOCTYPE svg PUBLIC "-//W3C//DTD SVG 20010904//EN"
 "http://www.w3.org/TR/2001/REC-SVG-20010904/DTD/svg10.dtd">
<svg version="1.0" xmlns="http://www.w3.org/2000/svg"
 width="180.000000pt" height="180.000000pt" viewBox="0 0 180.000000 180.000000"
 preserveAspectRatio="xMidYMid meet">
<metadata>
Created by potrace 1.15, written by Peter Selinger 2001-2017
</metadata>
<g transform="translate(0.000000,180.000000) scale(0.100000,-0.100000)"
fill="#000000" stroke="none">
<path d="M50 1750 l-50 -51 0 -799 0 -799 50 -51 51 -50 799 0 799 0 51 50 50
51 0 799 0 799 -50 51 -51 50 -799 0 -799 0 -51 -50z m717 -385 c22 -85 25
-81 -79 -77 -152 7 -221 -25 -248 -115 -29 -97 26 -174 161 -227 92 -37 140
-70 173 -120 60 -93 43 -244 -39 -335 -57 -63 -203 -111 -336 -111 l-77 0 -11
63 c-6 35 -11 66 -11 68 0 2 60 4 133 4 142 1 168 8 216 58 18 20 24 38 25 81
1 50 -2 58 -33 90 -19 19 -59 48 -90 63 -203 100 -260 179 -249 341 6 76 32
137 81 183 68 66 141 89 271 86 l100 -2 13 -50z m307 -398 l9 -447 214 0 215
0 -6 -23 c-3 -12 -6 -44 -6 -71 l0 -49 -167 7 c-93 3 -221 9 -285 12 l-118 7
0 166 c0 91 -5 314 -10 496 -5 181 -7 331 -5 334 5 5 125 19 140 16 6 -1 13
-165 19 -448z"/>
</g>
</svg>
